<svg version="1.0" xmlns="http://www.w3.org/2000/svg" width="120.000000pt" height="120.000000pt" viewBox="0 0 120.000000 120.000000" preserveAspectRatio="xMidYMid meet">
<g transform="translate(0.000000,120.000000) scale(0.100000,-0.100000)">
  <path d="M850 1100 c-6 -11 -16 -59 -21 -108 -6 -48 -18 -100 -26 -117 -19 -38 -53 -75 -68 -75 -7 0 -36 24 -65 53 -75 74 -98 87 -151 87 -39 0 -51 -5 -81 -34 -36 -35 -39 -44 -61 -151 -8 -41 -17 -60 -27 -60 -8 0 -32 26 -52 58 -56 83 -68 80 -190 -43 l-99 -100 6 -288 c4 -158 9 -290 12 -294 2 -5 267 -8 589 -8 l584 0 0 368 0 368 -26 35 c-14 19 -36 54 -49 79 -14 25 -38 61 -54 80 l-30 35 -28 -26 c-15 -15 -33 -25 -40 -22 -6 2 -22 34 -34 71 -36 108 -65 138 -89 92z"/>
</g>
</svg>